<?xml version="1.0" encoding="iso-8859-1"?>

<svg version="1.1" id="Capa_1" xmlns="http://www.w3.org/2000/svg" xmlns:xlink="http://www.w3.org/1999/xlink" x="0px" y="0px"
	 viewBox="0 0 490 490" style="enable-background:new 0 0 490 490;" xml:space="preserve">

		<path d="M236.7,98.061l-89.7-55.3c-10.4-6.3-22.9-3.1-29.2,7.3s-3.1,22.9,7.3,29.2l35.6,21.2C69.6,114.561,0,187.261,0,274.261
			c0,97,86.5,176.2,192.9,176.2c11.5,0,20.9-10.4,20.9-21.9s-9.4-20.9-20.9-20.9c-82.4,0-150.1-61.5-150.1-134.5
			c0-69.3,61.1-127.3,137.8-133l-32.6,43.4c-7.3,9.4-5.2,22.9,4.2,30.2c6.2,6.2,22,6.9,30.2-4.2l59.4-80.3
			C249.3,118.961,247.5,103.661,236.7,98.061z"/>
		<path d="M490,315.661c0-48.6-39.6-88.2-88.2-88.2c-29.3,0-53.2-23.9-53.2-53.2s23.9-53.2,53.2-53.2c14.8,0,28.6,5.9,38.7,16.7
			c6.6,7,17.7,7.4,24.7,0.8c7-6.6,7.4-17.7,0.8-24.7c-12.6-13.3-29-22.4-46.7-26v-28c0-9.7-7.8-17.5-17.5-17.5s-17.5,7.8-17.5,17.5
			v28c-40.3,8.1-70.7,43.8-70.7,86.4c0,48.6,39.6,88.2,88.2,88.2c29.3,0,53.2,23.9,53.2,53.2s-23.9,53.2-53.2,53.2
			c-14.8,0-28.6-5.9-38.7-16.7c-6.6-7-17.7-7.4-24.7-0.8s-7.4,17.7-0.8,24.7c12.6,13.3,29,22.4,46.7,26v28.1
			c0,9.7,7.8,17.5,17.5,17.5s17.5-7.8,17.5-17.5v-28C459.6,393.961,490,358.361,490,315.661z"/>

</svg>
