<?xml version="1.0" standalone="no"?>
<!DOCTYPE svg PUBLIC "-//W3C//DTD SVG 20010904//EN"
 "http://www.w3.org/TR/2001/REC-SVG-20010904/DTD/svg10.dtd">
<svg version="1.0" xmlns="http://www.w3.org/2000/svg"
 width="700.000000pt" height="700.000000pt" viewBox="0 0 700.000000 700.000000"
 preserveAspectRatio="xMidYMid meet">
<metadata>
Created by potrace 1.14, written by Peter Selinger 2001-2017
</metadata>
<g transform="translate(0.000000,700.000000) scale(0.100000,-0.100000)"
fill="#000000" stroke="none">
<path d="M1876 6425 c-112 -23 -199 -111 -231 -235 -12 -49 -3 -154 16 -177 6
-7 8 -13 5 -13 -9 0 43 -70 69 -93 11 -9 141 -90 289 -179 l268 -162 -133 -27
c-726 -148 -1356 -559 -1749 -1142 -88 -129 -179 -298 -229 -422 -18 -44 -36
-89 -41 -100 -28 -65 -70 -219 -95 -350 -9 -49 -19 -99 -21 -110 -13 -64 -19
-182 -18 -350 1 -171 4 -237 19 -315 2 -14 7 -43 10 -65 15 -110 70 -307 122
-440 152 -388 398 -728 733 -1011 500 -423 1162 -664 1831 -667 85 -1 102 2
152 27 59 28 127 97 152 150 56 125 24 276 -76 361 -56 46 -115 66 -214 71
-97 4 -224 13 -265 18 -261 34 -499 105 -730 218 -150 73 -325 186 -443 286
-41 35 -202 195 -248 247 -68 78 -176 238 -231 343 -147 280 -212 557 -203
857 2 72 6 141 9 155 2 14 8 48 12 75 4 28 8 55 10 60 1 6 7 31 13 56 90 389
352 780 706 1050 329 252 741 411 1172 452 l42 4 -21 -31 c-12 -17 -25 -33
-28 -36 -28 -25 -438 -584 -453 -619 -32 -70 -29 -179 7 -249 59 -116 152
-176 273 -176 129 1 194 43 310 202 42 59 81 112 86 117 4 6 25 33 45 60 20
28 80 109 133 180 396 537 526 714 542 737 27 42 47 137 43 198 -8 110 -54
173 -177 247 -45 26 -93 55 -107 64 -15 9 -142 87 -282 174 -140 86 -311 192
-380 235 -69 42 -179 110 -245 151 -307 190 -327 198 -449 174z"/>
<path d="M5660 6380 c-74 -25 -107 -56 -145 -135 -24 -48 -25 -57 -25 -276 l0
-226 -57 -12 c-275 -61 -570 -268 -737 -516 -48 -72 -136 -245 -136 -268 0 -7
-4 -17 -8 -22 -13 -14 -51 -168 -61 -245 -10 -69 -7 -311 4 -370 4 -19 13 -62
22 -95 8 -33 16 -67 18 -76 6 -32 74 -186 110 -248 209 -370 595 -611 1016
-636 211 -13 235 -16 322 -46 246 -83 427 -280 492 -534 51 -198 11 -439 -101
-602 -110 -159 -259 -266 -444 -319 -101 -29 -299 -25 -406 8 -107 32 -219 97
-302 175 -89 83 -140 108 -217 107 -70 -1 -117 -19 -167 -63 -76 -67 -102
-186 -60 -281 61 -140 386 -359 624 -422 l87 -22 3 -236 c3 -218 5 -238 24
-275 99 -185 349 -185 448 0 19 37 21 57 24 276 l3 236 57 12 c136 30 312 114
441 212 201 152 310 293 425 549 14 32 50 155 62 212 27 132 27 360 0 493 -57
278 -217 546 -431 725 -97 81 -243 165 -361 209 -155 57 -242 72 -489 86 -216
12 -421 118 -550 285 -118 154 -167 304 -161 500 6 200 80 366 226 511 152
150 358 229 564 216 103 -6 130 -11 201 -34 109 -35 200 -91 306 -188 76 -70
134 -95 210 -90 163 11 265 165 219 329 -26 95 -237 272 -435 365 -72 34 -194
76 -252 87 l-33 6 -1 224 c-2 250 -1 240 -11 250 -5 4 -8 15 -8 25 0 9 -20 39
-45 67 -70 78 -169 105 -265 72z"/>
</g>
</svg>
